<?xml version="1.0" standalone="no"?>
<!DOCTYPE svg PUBLIC "-//W3C//DTD SVG 20010904//EN"
 "http://www.w3.org/TR/2001/REC-SVG-20010904/DTD/svg10.dtd">
<svg version="1.0" xmlns="http://www.w3.org/2000/svg"
 width="480.000000pt" height="480.000000pt" viewBox="0 0 480.000000 480.000000"
 preserveAspectRatio="xMidYMid meet">
<metadata>
Created by potrace 1.14, written by Peter Selinger 2001-2017
</metadata>
<g transform="translate(0.000000,480.000000) scale(0.100000,-0.100000)"
fill="#000000" stroke="none">
<path d="M2030 4724 c-183 -24 -424 -82 -535 -128 -112 -47 -238 -105 -293
-136 -86 -47 -88 -48 -168 -100 -78 -50 -74 -48 -130 -92 -22 -18 -60 -49 -84
-68 -55 -43 -222 -210 -272 -270 -21 -25 -62 -79 -93 -120 -30 -41 -59 -80
-64 -86 -4 -5 -14 -21 -21 -35 -7 -13 -16 -26 -19 -29 -3 -3 -12 -16 -19 -29
-8 -13 -23 -40 -34 -60 -83 -146 -163 -339 -211 -506 -63 -225 -82 -371 -82
-630 0 -158 6 -248 19 -320 2 -11 7 -42 10 -70 4 -27 14 -77 23 -110 8 -33 17
-69 19 -80 17 -89 100 -307 166 -440 42 -83 117 -216 127 -225 3 -3 11 -12 16
-21 44 -71 111 -160 179 -238 33 -38 199 -203 234 -234 245 -211 541 -369 897
-477 30 -9 203 -45 260 -55 185 -30 515 -28 715 5 112 19 148 26 190 40 14 4
61 18 105 30 141 40 343 126 483 207 63 36 216 138 233 156 8 7 20 16 26 18
28 10 270 238 339 321 150 178 296 417 386 633 29 69 89 257 103 325 36 167
40 191 52 294 10 80 9 437 0 501 -5 28 -10 66 -13 85 -3 19 -8 49 -10 65 -8
49 -35 168 -44 195 -4 14 -16 52 -25 85 -10 33 -23 71 -28 85 -6 14 -11 28
-12 33 -2 4 -4 9 -5 12 -1 3 -3 8 -5 13 -7 25 -24 62 -85 187 -70 143 -190
334 -277 439 -61 73 -234 250 -291 296 -24 19 -56 45 -70 58 -72 62 -282 192
-417 257 -223 108 -466 184 -670 210 -22 3 -51 8 -65 11 -58 13 -438 12 -540
-2z"/>
</g>
</svg>
